<?xml version="1.0" encoding="UTF-8" standalone="no"?>
<svg
   viewBox="0 0 210 210"
   height="210"
   width="210"
   xml:space="preserve"
   id="svg2"
   version="1.1"
   sodipodi:docname="org-uthsa.svg"
   inkscape:version="1.3.2 (091e20e, 2023-11-25, custom)"
   xmlns:inkscape="http://www.inkscape.org/namespaces/inkscape"
   xmlns:sodipodi="http://sodipodi.sourceforge.net/DTD/sodipodi-0.dtd"
   xmlns="http://www.w3.org/2000/svg"
   xmlns:svg="http://www.w3.org/2000/svg"
   xmlns:rdf="http://www.w3.org/1999/02/22-rdf-syntax-ns#"
   xmlns:cc="http://creativecommons.org/ns#"
   xmlns:dc="http://purl.org/dc/elements/1.1/"><sodipodi:namedview
     id="namedview1"
     pagecolor="#505050"
     bordercolor="#eeeeee"
     borderopacity="1"
     inkscape:showpageshadow="0"
     inkscape:pageopacity="0"
     inkscape:pagecheckerboard="0"
     inkscape:deskcolor="#d1d1d1"
     inkscape:zoom="5.2038043"
     inkscape:cx="108.094"
     inkscape:cy="107.32533"
     inkscape:window-width="2560"
     inkscape:window-height="1387"
     inkscape:window-x="-8"
     inkscape:window-y="22"
     inkscape:window-maximized="1"
     inkscape:current-layer="g10" /><metadata
     id="metadata8"><rdf:RDF><cc:Work
         rdf:about=""><dc:format>image/svg+xml</dc:format><dc:type
           rdf:resource="http://purl.org/dc/dcmitype/StillImage" /></cc:Work></rdf:RDF></metadata><defs
     id="defs6" /><g
     transform="matrix(1.3333333,0,0,-1.3333333,0,220.8)"
     id="g10"><g
       id="g1"
       transform="matrix(2.0190981,0,0,2.0190981,-76.545392,-142.98333)"><path
         id="path14"
         style="fill:#231f20;fill-opacity:1;fill-rule:nonzero;stroke:none;stroke-width:0.1"
         d="m 51.879447,130.544 50.086603,10e-4 v 7.636 h -6.273403 v 2.47 h -1.4746 c 0,0 -3.25,-0.125 -5.6875,1.317 -2.4101,1.427 -2.8582,2.783 -2.8648,2.79 v 1.985 h -3.2129 c -0.5492,2.422 -2.7141,4.232 -5.3039,4.232 -2.5899,0 -4.7551,-1.81 -5.3027,-4.232 h -3.2707 v -1.985 c -0.0125,-0.013 -0.461,-1.366 -2.8653,-2.79 -2.4375,-1.442 -5.6875,-1.317 -5.6875,-1.317 h -1.9195 v -2.47 h -6.2738 v -1.856 -4.359 -1.393" /><path
         id="path16"
         style="fill:#231f20;fill-opacity:1;fill-rule:nonzero;stroke:none;stroke-width:0.1"
         d="m 73.270047,110.702 3.6433,11.214 3.6438,-11.214 h 11.793 l -9.5403,-6.93 3.6438,-11.212998 -9.5403,6.932 -9.5398,-6.931 3.6445,11.211998 -9.5398,6.93 z m -21.4024,3.389 c 0.0672,-3.671 0.6055,-7.294 1.5293,-10.852 1.7371,-6.687998 4.95,-12.521998 10.0664,-17.236998 3.9485,-3.6383 8.4961,-6.4055 13.1524,-9.0109 0.1355,-0.0766 0.3973,-0.0493 0.5437,0.032 3.2375,1.7914 6.384,3.7269 9.3821,5.9051 6.3836,4.6398 10.8183,10.6778 13.1875,18.221798 1.658003,5.279 2.212003,10.712 2.247003,16.209 0.019,2.876 0.021,7.89 0.021,10.767 H 51.850847 c -0.0015,-3.966 -0.0554,-10.07 0.0168,-14.035" /><path
         id="path56"
         style="fill:#231f20;fill-opacity:1;fill-rule:nonzero;stroke:none;stroke-width:0.1"
         d="m 82.582547,78.002802 h 0.2644 c 0.1262,0 0.2121,0.0187 0.2579,0.0566 0.046,0.0375 0.0695,0.0875 0.0695,0.1496 0,0.0395 -0.011,0.075 -0.0332,0.1067 -0.0227,0.0312 -0.0528,0.0554 -0.0926,0.0711 -0.0395,0.0148 -0.1113,0.0226 -0.218,0.0226 h -0.248 z m -0.2168,-0.7586 v 1.348 h 0.4629 c 0.1582,0 0.2722,-0.0129 0.3437,-0.0371 0.0711,-0.0254 0.127,-0.0683 0.17,-0.1304 0.041,-0.0622 0.0625,-0.1278 0.0625,-0.1977 0,-0.0988 -0.0352,-0.184 -0.1055,-0.2574 -0.0703,-0.0731 -0.1629,-0.1141 -0.2793,-0.1231 0.0469,-0.0195 0.0859,-0.0433 0.114,-0.0711 0.0547,-0.0535 0.1211,-0.1421 0.1993,-0.2671 l 0.164,-0.2641 h -0.2652 l -0.1195,0.2125 c -0.0946,0.1672 -0.17,0.2719 -0.2274,0.3137 -0.0398,0.0312 -0.0976,0.0464 -0.1738,0.0464 h -0.1289 v -0.5726 z m 0.5488,1.7383 c -0.1758,0 -0.3469,-0.045 -0.5137,-0.1356 -0.166,-0.0902 -0.2968,-0.2187 -0.3906,-0.3863 -0.0945,-0.1676 -0.1418,-0.3426 -0.1418,-0.5242 0,-0.1805 0.0473,-0.3535 0.1391,-0.5192 0.0926,-0.1652 0.2215,-0.2941 0.3883,-0.3867 0.1664,-0.0922 0.339,-0.1387 0.5187,-0.1387 0.1817,0 0.3543,0.0465 0.5203,0.1387 0.166,0.0926 0.295,0.2215 0.3867,0.3867 0.0918,0.1657 0.1379,0.3387 0.1379,0.5192 0,0.1816 -0.0468,0.3566 -0.1406,0.5242 -0.093,0.1676 -0.2234,0.2961 -0.3906,0.3863 -0.1668,0.0906 -0.3379,0.1356 -0.5137,0.1356 z m 0,0.2074 c 0.211,0 0.416,-0.0535 0.616,-0.1617 0.2016,-0.1078 0.3567,-0.2625 0.4692,-0.4633 0.1113,-0.2012 0.1668,-0.4106 0.1668,-0.6285 0,-0.2156 -0.0547,-0.4235 -0.1653,-0.6227 -0.1093,-0.1988 -0.2644,-0.3539 -0.4629,-0.464 -0.198,-0.1098 -0.4058,-0.1653 -0.6238,-0.1653 -0.2168,0 -0.4238,0.0555 -0.623,0.1653 -0.1985,0.1101 -0.3535,0.2652 -0.4637,0.464 -0.1117,0.1992 -0.166,0.4071 -0.166,0.6227 0,0.2179 0.0555,0.4273 0.1676,0.6285 0.1132,0.2008 0.2687,0.3555 0.4699,0.4633 0.2004,0.1082 0.4051,0.1617 0.6152,0.1617" /></g></g></svg>
