<?xml version="1.0" encoding="UTF-8" standalone="no"?>
<!-- Generator: Adobe Illustrator 27.6.1, SVG Export Plug-In . SVG Version: 6.00 Build 0)  -->

<svg
   version="1.1"
   id="Layer_1"
   x="0px"
   y="0px"
   viewBox="0 0 220 220"
   xml:space="preserve"
   width="220"
   height="220"
   xmlns:xlink="http://www.w3.org/1999/xlink"
   xmlns="http://www.w3.org/2000/svg"
   xmlns:svg="http://www.w3.org/2000/svg"><defs
   id="defs37">
		<defs
   id="defs1">
			<polygon
   id="SVGID_00000148654529058318438170000011075644351327164351_"
   points="456.1,296.8 645.3,296.8 645.3,92.9 456.1,92.9 " />
		</defs>
		<clipPath
   id="SVGID_00000123405230286250858230000005718237131171167362_">
			<use
   xlink:href="#SVGID_00000148654529058318438170000011075644351327164351_"
   style="overflow:visible"
   id="use1" />
		</clipPath>
		
		
	</defs>
<style
   type="text/css"
   id="style1">
	.st0{display:none;fill:#1E3B70;}
	.st1{clip-path:url(#SVGID_00000036939828107632129230000002115630096135383451_);fill:#231F20;}
	.st2{fill:#231F20;}
	.st3{clip-path:url(#SVGID_00000022553940663271400730000002823233203686903954_);fill:#231F20;}
	.st4{clip-path:url(#SVGID_00000026851347084445533820000011998349779738012827_);fill:#231F20;}
	.st5{clip-path:url(#SVGID_00000140714955980775091990000008683295260620207748_);fill:#002D72;}
	.st6{fill:#002D72;}
	.st7{clip-path:url(#SVGID_00000097471213582440487370000013624826422892802952_);fill:#002D72;}
	.st8{clip-path:url(#SVGID_00000078764034244478402350000000888322378169297304_);fill:#002D72;}
	.st9{clip-path:url(#SVGID_00000053525485323331068020000002509107884094749325_);fill:#FFFFFF;}
	.st10{clip-path:url(#SVGID_00000099657082171397792540000004391083255373404824_);fill:#FFFFFF;}
	.st11{fill:#FFFFFF;}
	.st12{clip-path:url(#SVGID_00000047035800863705837760000012123996123377362096_);fill:#FFFFFF;}
	.st13{clip-path:url(#SVGID_00000035507311314045035900000007540150011887705271_);fill:#231F20;}
	.st14{clip-path:url(#SVGID_00000038409408644487700970000010614911230215239851_);fill:#231F20;}
	.st15{clip-path:url(#SVGID_00000067225534182480608230000013187691128966093997_);fill:#231F20;}
	.st16{clip-path:url(#SVGID_00000030487029638194072560000015256652383348042683_);fill:#002D72;}
	.st17{clip-path:url(#SVGID_00000133518483454623044930000016521709825437532309_);fill:#002D72;}
	.st18{clip-path:url(#SVGID_00000159454761114374526760000009784083367551322540_);fill:#FFFFFF;}
	.st19{clip-path:url(#SVGID_00000111891538540175455720000001877482205533914515_);fill:#FFFFFF;}
</style>
<g
   id="g37">
	
	
	
	
	
	
	
	
	<g
   id="g38"
   transform="matrix(1.0305379,0,0,1.0305379,-457.51722,-90.736968)"><path
     style="fill:#231f20"
     d="m 641.5,102.4 v 0 c -26.6,-5.7 -54.1,-8.9 -82.2,-9.5 38.2,28.9 62.9,71.9 68.7,119.3 10.3,-23.7 17.3,-53 17.3,-88.7 v -16.4 c 0,-2.3 -1.6,-4.2 -3.8,-4.7"
     clip-path="url(#SVGID_00000123405230286250858230000005718237131171167362_)"
     id="path1" /><path
     style="fill:#231f20"
     d="m 480.1,226.1 c 21.3,39.6 51.4,61 68.2,69.9 1.8,1 3.2,0.8 4.7,0 16.8,-8.9 47,-30.3 68.2,-70 -22.2,9.7 -46.6,14.8 -70.8,14.8 -24.4,0.1 -48,-4.9 -70.3,-14.7"
     clip-path="url(#SVGID_00000123405230286250858230000005718237131171167362_)"
     id="path2" /><path
     class="st2"
     d="m 542,92.9 c -28.1,0.6 -55.6,3.8 -82.2,9.5 h -0.1 c -2.1,0.5 -3.6,2.4 -3.6,4.6 v 16.4 c 0,35.7 6.9,64.8 17.2,88.6 5.8,-47.3 30.5,-90.1 68.7,-119.1"
     id="path3" /><path
     class="st2"
     d="m 550.4,218.2 c -18.5,0 -36.6,-3.3 -53.8,-9.8 6,-36.6 25.2,-69.8 54,-93.6 28.8,23.7 47.9,56.9 54,93.5 -17.3,6.6 -35.8,9.9 -54.2,9.9 m 0.2,-122.9 c -39.4,27.9 -66.4,72.2 -71,123 11.4,5.3 23.1,9.2 35,11.7 11.9,2.6 23.9,3.8 35.8,3.8 12.3,0 24.5,-1.3 36.4,-4 11.9,-2.6 23.6,-6.5 34.7,-11.6 C 617,167.5 590,123.2 550.6,95.3"
     id="path4" /><path
     class="st2"
     d="m 533.7,196.8 c 0,-2.1 1.3,-3.8 3.2,-4.4 0.1,-4.7 1.2,-11.7 5,-19.8 h -5.7 c -5.1,3.9 -8,8 -11.1,21.2 0.7,0.8 1.2,1.9 1.2,3 z"
     id="path5" /><path
     class="st2"
     d="m 564.2,192.4 c 1.9,0.6 3.2,2.3 3.2,4.4 h 7.6 c 0,-1.1 0.5,-2.1 1.1,-3 -3.1,-13.2 -6.1,-17.4 -11.2,-21.2 h -5.8 c 3.9,8.2 5,15.1 5.1,19.8"
     id="path6" /><path
     class="st2"
     d="M 543.1,196.8 H 558 c 0,-1.7 1,-3.1 2.3,-4 -0.1,-5.1 -1.3,-12.2 -5.4,-20.2 h -2.6 -3.7 -2.5 c -4.1,8 -5.3,15.2 -5.4,20.2 1.5,0.9 2.4,2.3 2.4,4"
     id="path7" /><polygon
     class="st2"
     points="577.4,209.9 577.4,202.7 561.1,202.7 540.1,202.7 523.9,202.7 523.9,209.9 "
     id="polygon7" /><path
     class="st2"
     d="m 549.5,139.2 h 2.3 2.6 c 0,0 0.5,-3.3 -2,-4.2 -0.5,-2.9 -0.4,-5.7 -0.7,-8.1 -0.1,-1.1 -0.5,-2.2 -1,-2.2 -0.5,0 -0.9,1 -1,2.2 -0.4,2.4 -0.2,5.2 -0.7,8.1 -2.6,0.9 -2,4.2 -2,4.2 z"
     id="path8" /><path
     class="st2"
     d="m 558.9,165.2 c -0.4,-4.2 0.7,-4.6 -3.9,-4.4 v -8.6 c 4.6,-1.8 3.5,-7.4 -0.4,-8.1 -0.2,-0.2 -8,-0.2 -8.2,0 -3.9,0.7 -5,6.3 -0.4,8.1 v 8.6 c -4.6,-0.2 -3.5,0.2 -3.9,4.4 0,0 -1.6,-0.2 -2.4,0.2 -1.1,0.6 -1.3,1.7 -1.8,2.6 h 9 7.1 9 c -0.5,-0.9 -0.7,-2 -1.8,-2.6 -0.6,-0.4 -2.3,-0.2 -2.3,-0.2"
     id="path9" /></g>
	
	
	
	
	
	
	
	
	
	
	
	
	
	
	
	
	
	
	
	
	
	
	
	
	
	
	
</g>
</svg>
